<?xml version="1.0" standalone="no"?>
<!DOCTYPE svg PUBLIC "-//W3C//DTD SVG 1.1//EN" "http://www.w3.org/Graphics/SVG/1.1/DTD/svg11.dtd" >
<svg xmlns="http://www.w3.org/2000/svg">
<metadata>
Created by FontForge 20120731 at Tue Mar  7 13:51:35 2017
 By admin
</metadata>
<defs>
<font id="iconfont" horiz-adv-x="1024" >
  <font-face 
    font-family="iconfont"
    font-weight="500"
    font-stretch="normal"
    units-per-em="1024"
    panose-1="2 0 6 3 0 0 0 0 0 0"
    ascent="896"
    descent="-128"
    x-height="792"
    bbox="0 -212 1801 896"
    underline-thickness="0"
    underline-position="0"
    unicode-range="U+0078-E70A"
  />
<missing-glyph 
 />
    <glyph glyph-name=".notdef" 
 />
    <glyph glyph-name=".notdef" 
 />
    <glyph glyph-name=".null" horiz-adv-x="0" 
 />
    <glyph glyph-name="nonmarkingreturn" horiz-adv-x="341" 
 />
    <glyph glyph-name="x" unicode="x" horiz-adv-x="1001" 
d="M281 543q-27 -1 -53 -1h-83q-18 0 -36.5 -6t-32.5 -18.5t-23 -32t-9 -45.5v-76h912v41q0 16 -0.5 30t-0.5 18q0 13 -5 29t-17 29.5t-31.5 22.5t-49.5 9h-133v-97h-438v97zM955 310v-52q0 -23 0.5 -52t0.5 -58t-10.5 -47.5t-26 -30t-33 -16t-31.5 -4.5q-14 -1 -29.5 -0.5
t-29.5 0.5h-32l-45 128h-439l-44 -128h-29h-34q-20 0 -45 1q-25 0 -41 9.5t-25.5 23t-13.5 29.5t-4 30v167h911zM163 247q-12 0 -21 -8.5t-9 -21.5t9 -21.5t21 -8.5q13 0 22 8.5t9 21.5t-9 21.5t-22 8.5zM316 123q-8 -26 -14 -48q-5 -19 -10.5 -37t-7.5 -25t-3 -15t1 -14.5
t9.5 -10.5t21.5 -4h37h67h81h80h64h36q23 0 34 12t2 38q-5 13 -9.5 30.5t-9.5 34.5q-5 19 -11 39h-368zM336 498v228q0 11 2.5 23t10 21.5t20.5 15.5t34 6h188q31 0 51.5 -14.5t20.5 -52.5v-227h-327z" />
    <glyph glyph-name="yinliao" unicode="&#xe600;" 
d="M913 774q6 -27 -3 -42t-28 -23q-4 1 -11 4q-5 2 -12.5 4t-17.5 5q-6 1 -13 1.5t-12 0.5q-6 0 -12 -1q-5 6 -10.5 12t-7.5 22q-2 28 13 43.5t40 19.5q25 3 47 -10t27 -36zM846 809q2 6 3 13q2 12 -4 30q-5 11 -14.5 15.5t-18.5 4.5q-11 1 -12.5 10t11.5 13q15 3 33.5 -4
t27.5 -31q5 -11 6 -22.5t0 -21t-3.5 -15.5t-3.5 -7q-2 -2 -5.5 0.5t-8.5 5.5q-5 4 -11 9zM807 694q49 0 65 -13.5t12.5 -32t-20.5 -40t-34 -37.5q-6 -5 -20 -18.5t-35 -33.5t-45.5 -43.5t-49.5 -48.5q-58 -56 -129 -125v-262q1 -9 11.5 -20.5t27 -18.5t32.5 -15t16 -22
q0 -11 -15 -12.5t-26 -1.5h-155q-18 0 -35 2t-17 13q0 7 6.5 13t15 10t16.5 7t13 5q40 20 38 40v14v30v41v48v128q-67 64 -125 121q-25 25 -51 50t-49 47.5t-42.5 41.5t-31.5 30q-21 19 -29 38t-3.5 34t20 23t40.5 8h49h96h120h130h117h87zM659 541h-48l102 95h-215h-80h-71
h-51h-22q-20 2 -29 -9t9 -25q13 -12 29 -27t30 -29q16 -16 34 -33h345q23 20 42 36q16 14 31.5 27.5t22.5 19.5q19 17 11 29.5t-35 10.5z" />
    <glyph glyph-name="muying" unicode="&#xe601;" 
d="M820 402q18 -17 18 -43t-18 -45l-423 -424q-19 -17 -45 -17t-44 17l-290 290q-18 19 -18 44.5t18 44.5l424 423q19 19 44.5 19t43.5 -19zM508 537q9 9 9 22t-9 22t-22 9t-22 -9l-311 -312q-10 -9 -10 -22.5t9.5 -22.5t22 -9t22.5 9zM920 481q14 -14 14 -33.5t-14 -33.5
q-14 -15 -33.5 -15t-33.5 15l-311 311q-15 14 -15 33.5t15 34.5q13 14 32.5 14t33.5 -14zM1010 814q-15 -13 -34 -13t-33 13q20 -20 29 -46t7 -54.5t-14.5 -56.5t-33.5 -53v-1q10 -9 10 -22t-10 -22q-9 -9 -22.5 -9t-22.5 9l-200 200q-8 9 -8 22.5t9 22.5q8 10 21.5 10
t22.5 -10v-1q25 22 53.5 34.5t57 14t55 -7t46.5 -28.5q-14 14 -14 33t14 33t33 14t34 -14q13 -15 13.5 -34.5t-13.5 -33.5z" />
    <glyph glyph-name="quan1" unicode="&#xe606;" horiz-adv-x="1000" 
d="M850 -87h-672q-26 0 -45 18.5t-19 45.5v671q0 27 19 45.5t45 18.5h672q26 0 45 -18.5t19 -45.5v-671q0 -27 -19 -45.5t-45 -18.5zM359 554l-28 -23q33 -35 61 -69l32 27q-28 31 -65 65zM654 554q-25 -38 -59 -72l30 -23q35 36 63 74zM757 331v34h-294q19 28 33 58h235v34
h-222q15 44 29 96l-40 8q-12 -56 -31 -104h-174v-34h159q-15 -31 -36 -58h-144v-34h115q-50 -51 -122 -86q14 -17 24 -34q37 21 68 44v-26h69q-7 -46 -31 -73q-30 -35 -113 -56q11 -15 22 -36q89 27 122 65q30 33 40 100h149q-6 -49 -10 -77q-6 -36 -50 -36q-37 0 -81 3
q7 -21 10 -41q60 -1 82 -1q67 0 78 68q6 49 13 108q35 -23 78 -37q14 20 28 38q-88 18 -142 77h136zM437 331h139q28 -40 66 -68h-275q40 31 70 68z" />
    <glyph glyph-name="zuojiantou" unicode="&#xe605;" 
d="M320 300l321 -257v513z" />
    <glyph glyph-name="weixin" unicode="&#xe60b;" 
d="M571 301q-8 0 -14.5 -6t-6.5 -15q0 -7 6.5 -13t14.5 -6q11 0 18.5 6t7.5 13q0 9 -7.5 15t-18.5 6zM504 399q12 0 19 7t7 19q0 11 -7 18t-19 7t-21 -7t-9 -18t9 -18.5t21 -7.5zM511.5 746q-90.5 0 -173 -35t-142 -95t-95 -142.5t-35.5 -173t35.5 -173t95 -142t142 -95
t173 -35.5t173 35.5t142.5 95t95 142t35 173t-35 173t-95 142.5t-142.5 95t-173 35zM428 188q-32 0 -72 12l-73 -37l21 62q-82 58 -82 138q0 73 60 123.5t146 50.5q75 0 134.5 -40.5t71.5 -103.5q-10 3 -19 3q-74 0 -124.5 -48t-50.5 -116q0 -20 6 -43q-6 -1 -18 -1z
M730 117l15 -52l-55 31q-53 -11 -63 -11q-73 0 -123.5 43.5t-50.5 106t50.5 106t123.5 43.5q70 0 122.5 -44t52.5 -106q0 -65 -72 -117zM360 450q-12 0 -21.5 -7t-9.5 -18t9.5 -18.5t21.5 -7.5q11 0 18.5 7t7.5 19q0 11 -7.5 18t-18.5 7zM685 301q-9 0 -15 -6t-6 -15
q0 -7 6.5 -13t14.5 -6q10 0 17.5 6t7.5 13q0 9 -7.5 15t-17.5 6z" />
    <glyph glyph-name="phone" unicode="&#xe602;" 
d="M756 -133h-488q-21 0 -36.5 13t-15.5 32v780q0 19 15.5 32t36.5 13h488q21 0 36.5 -13t15.5 -32v-780q0 -19 -15.5 -32t-36.5 -13zM512 -88q14 0 24.5 9t10.5 21t-10.5 21t-24.5 9t-24.5 -9t-10.5 -21t10.5 -21t24.5 -9zM756 647h-488v-630h488v630z" />
    <glyph glyph-name="sousuo" unicode="&#xe60e;" 
d="M672 129q-64 -65 -151 -88t-173.5 0t-151 87.5t-87.5 151.5t0 173.5t87.5 151t151 87.5t173.5 0t151.5 -87.5t87.5 -151t0 -173.5t-88 -151v0zM270 531q-68 -68 -68 -164.5t68 -164.5t164.5 -68t164.5 68t68 164.5t-68 164.5t-164.5 68t-164.5 -68v0v0zM931 -29
q19 -19 19 -45.5t-19 -44.5l-11 -12q-19 -18 -45 -18t-45 18l-231 232q-19 19 -19 45t19 45l11 11q19 19 45 19t45 -19zM931 -29z" />
    <glyph glyph-name="jiantou" unicode="&#xe618;" 
d="M544 69l-416 462h768z" />
    <glyph glyph-name="llalbummsgsign" unicode="&#xe609;" 
d="M862 51h-155l-195 -194l-195 194h-155q-29 0 -49.5 20.5t-20.5 49.5v559q0 29 20.5 49.5t49.5 20.5h700q29 0 49.5 -20.5t20.5 -49.5v-559q0 -29 -20.5 -49.5t-49.5 -20.5zM862 645q0 15 -10.5 25t-24.5 10h-630q-14 0 -24.5 -10t-10.5 -25v-489q0 -14 10.5 -24.5
t24.5 -10.5h134l181 -172l181 172h134q14 0 24.5 10.5t10.5 24.5v489zM302 471q29 0 49.5 -20.5t20.5 -49.5t-20.5 -49.5t-49.5 -20.5t-49.5 20.5t-20.5 49.5t20.5 49.5t49.5 20.5zM512 471q29 0 49.5 -20.5t20.5 -49.5t-20.5 -49.5t-49.5 -20.5t-49.5 20.5t-20.5 49.5
t20.5 49.5t49.5 20.5zM722 471q29 0 49.5 -20.5t20.5 -49.5t-20.5 -49.5t-49.5 -20.5t-49.5 20.5t-20.5 49.5t20.5 49.5t49.5 20.5zM512 471q29 0 49.5 -20.5t20.5 -49.5t-20.5 -49.5t-49.5 -20.5t-49.5 20.5t-20.5 49.5t20.5 49.5t49.5 20.5z" />
    <glyph glyph-name="xiangshang" unicode="&#xe648;" 
d="M512 599l-256 -256h171v-342h170v342h171z" />
    <glyph glyph-name="qq" unicode="&#xe616;" 
d="M512 812q-104 0 -199 -40.5t-163.5 -109t-109 -163.5t-40.5 -199t40.5 -199t109 -163.5t163.5 -109t199 -40.5t199 40.5t163.5 109t109 163.5t40.5 199t-40.5 199t-109 163.5t-163.5 109t-199 40.5zM794 140q-10 -8 -25.5 0.5t-32.5 31.5q-14 -38 -36 -71q51 -18 51 -47
q0 -25 -39 -43t-94 -18q-66 0 -106 24q-39 -24 -106 -24q-55 0 -93.5 18t-38.5 43q0 29 50 47q-21 32 -36 71q-16 -23 -31.5 -31.5t-25.5 -0.5q-14 13 -9.5 52.5t24.5 81.5q9 20 20 35q3 124 74.5 211t171.5 87v0q101 0 172.5 -87t74.5 -211q10 -15 19 -35
q20 -42 24.5 -81.5t-8.5 -52.5z" />
    <glyph glyph-name="douban" unicode="&#xe61d;" 
d="M512 745q-91 0 -173.5 -35.5t-142.5 -95t-95 -142.5t-35 -174t35 -173.5t95 -142.5t142.5 -95t173.5 -35t174 35t142.5 95t95 142.5t35.5 173.5t-35.5 174t-95 142.5t-142.5 95t-174 35.5zM306 498h423v-48h-423v48zM692 400v-186h-349v186h349zM741 60h-447v47h130
q-18 38 -46 81l46 19q28 -41 50 -100h88q27 45 46 100l51 -19q-20 -46 -43 -81h125v-47zM393 353h249v-91h-249v91z" />
    <glyph glyph-name="jianhao" unicode="&#xe614;" 
d="M165 369h694v-138h-694v138z" />
    <glyph glyph-name="iconfontanzhuo" unicode="&#xe628;" 
d="M964 465q23 0 39 -15t16 -36v-299q0 -21 -16 -35.5t-39 -14.5h-19q-23 0 -39 14.5t-16 35.5v299q0 21 16 36t39 15h19zM141 465q23 0 38 -15t15 -36v-299q0 -21 -15 -35.5t-38 -14.5h-19q-23 0 -39.5 14.5t-16.5 35.5v299q0 21 16.5 36t39.5 15h19zM701 700q18 -8 38 -22
t38 -33.5t32 -42t20 -48.5h-577q16 54 51 88.5t71 54.5l-52 82q-2 2 -0.5 7.5t10.5 11.5q8 7 15.5 6.5t9.5 -2.5l52 -83q29 13 60.5 20t64.5 7q69 0 129 -28l54 84q2 2 7.5 2t16.5 -6q11 -5 12.5 -9t-0.5 -6zM417.5 613q13.5 0 22.5 9t9 22.5t-9 22.5t-22.5 9t-22.5 -9
t-9 -22.5t9 -22.5t22.5 -9zM667 617q13 0 22.5 9t9.5 22.5t-9.5 22.5t-22.5 9t-22 -9t-9 -22.5t9 -22.5t22 -9zM829 490l1 -456q0 -23 -15 -38t-36 -15h-14v-142q0 -21 -15 -36t-36 -15h-29q-21 0 -35.5 15t-14.5 36v142h-187v-142q0 -21 -14.5 -36t-36.5 -15h-29
q-20 0 -35 15t-15 36v142h-11q-21 0 -36 15t-15 38v456h573z" />
    <glyph glyph-name="icon1" unicode="&#xe608;" 
d="M779 -192h-18q-34 14 -36 15q-80 45 -203 114q-8 5 -16 0q-96 -54 -126 -70q-11 -6 -34.5 -20t-42 -24t-37.5 -15h-17l-6 2q-28 6 -43.5 29t-11.5 50q20 128 43 263q1 8 -5 15q-5 5 -67 70q-109 112 -113 117q-30 31 -18 72q12 39 53 48q3 1 29 5q173 27 219 34
q11 1 16 12q20 44 57 124t47 102q12 26 33 36q1 1 23 9h18q41 -9 63 -59q14 -31 30.5 -67t36.5 -79.5t31 -67.5q4 -9 13 -10q34 -5 113 -17.5t121 -18.5t60 -33q14 -21 11 -46.5t-22 -45.5q-157 -164 -178 -186q-6 -6 -5 -12q29 -180 42 -256q6 -34 -10 -57.5t-40 -29.5
q0 -1 -10 -3zM770 -121l-1 10q-33 207 -41 255q-7 40 22 70q30 31 175 182l8 9q-217 34 -243 37q-50 7 -69 51q-12 27 -102 221l-5 10l-5 -11q-85 -183 -105 -226q-17 -36 -52 -42q-17 -3 -190 -30q-5 0 -67 -10l9 -10q147 -153 175 -183q27 -27 22 -63q-1 -6 -36 -222
q-1 -2 -7 -48q10 6 11 6q177 99 206 116q39 22 78 0q29 -17 205 -116q1 0 12 -6z" />
    <glyph glyph-name="biao3" unicode="&#xe615;" 
d="M469 556v-299h18l-6 -10l244 -141l21 37l-234 135v278h-43zM512 747q-132 0 -241 -70.5t-164 -185.5v128h-42v-213h213v43h-131q45 109 144 177t221 68q107 0 198 -52.5t143.5 -143.5t52.5 -198t-52.5 -198t-143.5 -143.5t-198 -52.5q-152 0 -264 101.5t-128 249.5h-53
q10 -112 72 -204.5t160.5 -146t212.5 -53.5q91 0 174 35.5t142.5 95t95 142.5t35.5 174t-35.5 174t-95 142.5t-142.5 95t-174 35.5z" />
    <glyph glyph-name="xinlang" unicode="&#xe668;" 
d="M375 225q-16 -2 -27 -14t-11 -27q0 -14 11.5 -22.5t28.5 -6.5t29 13.5t12 25.5t-12 23t-31 8zM432 240q-6 -4 -7 -11t2 -12q7 -12 21 -2q13 11 6 23q-8 13 -22 2zM510 748q-91 0 -173.5 -35.5t-142.5 -95.5t-95.5 -142.5t-35.5 -173.5t35.5 -173.5t95.5 -142t142.5 -95
t173.5 -35.5t173.5 35.5t142.5 95t95 142t35 173.5t-35 173.5t-95 142.5t-142.5 95.5t-173.5 35.5zM754 189q-23 -50 -80.5 -85.5t-123.5 -50.5t-128 -10q-38 3 -71.5 9.5t-70 20t-64 33.5t-47 51.5t-23.5 71.5q-1 7 -0.5 19.5t13.5 50t40 73.5q3 5 9.5 13.5t27 31.5
t41.5 42.5t51.5 39.5t59.5 30t50.5 10.5t33 -6t19 -18t9 -22t1.5 -23.5q-7 -23 -4.5 -32.5t27.5 -1.5q4 1 11 4t26.5 9t36.5 8t36.5 -1.5t30.5 -14.5q15 -15 16.5 -34.5t-4.5 -32.5l-6 -12q-1 -1 -1.5 -2t-1.5 -4t0 -5.5t5 -5t12 -4.5q11 -2 23.5 -7.5t27 -18t24 -29t9 -42
t-14.5 -55.5zM655 478q-8 0 -13.5 6t-5.5 14t5.5 13.5t13.5 5.5q3 1 7.5 1.5t17 0.5t23.5 -2.5t24 -10t21.5 -19t13 -32t1.5 -47.5v-2q-1 -7 -6.5 -11.5t-12.5 -4.5q-8 0 -14 5.5t-6 13.5l1 9.5t0 21t-7.5 23t-21 16t-41.5 -0.5zM863 386q-2 -17 -5 -24.5t-5.5 -8.5
t-8.5 0.5t-9 1.5q-12 0 -20 6.5t-8 17.5q0 6 1 12.5t3 9.5l1 3q13 45 -9 94q-15 25 -39 42t-44 21.5t-38 7t-20 -0.5l-26 -7q-12 0 -20.5 8.5t-8.5 19.5q0 22 21 28h1t2.5 0.5t14.5 4t23 5t29 3t32 -2.5q30 -8 59 -25.5t53.5 -48t30 -72t-9.5 -95.5v0v0zM431 365
q-90 -4 -153 -46.5t-63 -102.5t63.5 -99t152.5 -35t152.5 52t63.5 108q0 59 -62 93.5t-154 29.5zM513 165q-30 -38 -77.5 -48.5t-102.5 16.5q-14 8 -22.5 21.5t-8.5 22.5l-1 9q0 3 -0.5 7t0.5 16t4 23t10.5 25t18.5 25t30 19.5t43 11.5q43 5 72.5 -10.5t40 -40.5t8.5 -52
t-15 -45z" />
    <glyph glyph-name="qqkongjian" unicode="&#xe6df;" 
d="M675 395h-311l205 -35l-220 -179h333l-197 43l190 171v0zM513 748q-91 0 -174 -35.5t-143 -95.5t-95.5 -143t-35.5 -174t35.5 -173.5t95.5 -142.5t143 -95.5t174 -35.5t173.5 35.5t142.5 95.5t95.5 142.5t35.5 173.5t-35.5 174t-95.5 143t-142.5 95.5t-173.5 35.5z
M829 384l-124 -104l41 -263q-8 -8 -16 -8l-214 131l-214 -131q-13 0 -15.5 1t-2.5 7l29 263l-130 115l-44 31h-13v2l13 -2h255l32 59l82 173h17l90 -173l33 -59h222q3 0 6 1q1 1 1.5 0.5t0.5 -4.5l-49 -39v0z" />
    <glyph glyph-name="pinglun" unicode="&#xe638;" 
d="M979 145l-1 -6l-1 -3l-1 -2v-1l-1 -1l-1 -2l-1 -2l-1 -3l-1 -2l-1 -2l-1 -1l-1 -1l-1 -1l-1 -1l-1 -1l-1 -2l-1 -1l-1 -3l-1 -1l-2 -1v-2h-2l-1 -1l-1 -2l-2 -1l-2 -1l-2 -1l-1 -1v-1l-1 -2l-1 -1l-3 -1l-3 -1l-3 -1h-2l-1 -1l-1 -2l-2 -1l-3 -1l-8 -1l-338 -1l-3 -1
l-1 -1l-1 -1l-1 -1l-1 -1l-1 -1l-1 -1v-1h-2v-1q-1 -5 -6.5 -8t-5.5 -7q-6 -2 -10 -7q-1 0 -4 -2t-3 -7l-5 -1l-4 -2l-1 -5l-9 -4q0 -3 -1 -3.5t-2.5 -1t-2.5 -1.5t-1 -3t-1 -2.5t-5 -0.5v-3h-2v-6l-3 -1h-4l-4 -6q-5 0 -10 -7q-1 -1 -4.5 -4t-4.5 -6q-4 -1 -5.5 -2t-2 -3
t-1.5 -3l-3.5 -1.5t-4.5 -6.5q-10 0 -18 -16q-4 0 -5.5 -0.5t-2.5 -2.5t-4 -4q-1 0 -4 -5q-1 -1 -3 -2t-2 -2q-2 -1 -6.5 -5t-8.5 -7.5t-6 -3.5v-3q-2 -1 -3.5 -3t-5.5 -3l-13 -15l1 -1q-9 0 -10 -6h-3q-7 0 -7 5v3q0 4 5 5l2 16l9 10q0 7 0.5 10t1.5 3.5t2 1.5t1 4h2v1
l1 16l6 3l2 16l6 5l1 8v6q7 2 7 12h2v8q0 2 4 5.5t4 12.5l7 12v1l1 1h1v5v6h3q0 2 2 4.5t2 4.5v3q0 3 -2.5 3t-7 -0.5t-5.5 -0.5h-318q-12 0 -16 9q-7 0 -10 4t-10 6q0 4 -4 8t-5 7h-5l-3 15l-6 1l-1 10v534q0 10 6 11l4 14l6 4q1 5 4.5 7.5t4.5 5.5h4h2l2 1l1 1l2 1l1 1v1
l1 1l1 1l1 1l3 1l4 1h3l2 1l2 1l1 1l2 1l1 1l6 1h817l5 -1l1 -1l1 -1l3 -1l2 -1l2 -1h3l4 -1l1 -1l2 -1l1 -1l1 -1l1 -1l1 -1l1 -1l2 -1l2 -1l1 -1l1 -1l1 -2h1l1 -1l1 -1l2 -1l1 -1v-1l1 -2l1 -2l1 -1l1 -2l1 -1l2 -1l1 -1l1 -2l1 -3l1 -2l1 -3l1 -1l1 -2v-1l1 -2l1 -2
l1 -7l1 -12v-506l-1 -12v0v0zM476 -65h1l1 1l2 1l1 1l1 1v1l2 5q2 0 3.5 1t3.5 2q2 8 14 16h4v3h2q0 2 0.5 2.5t4.5 0.5v3h3q1 6 7 6q1 3 2.5 4t2.5 3h3q1 4 2 5t3.5 2t4.5 2l-1 8h8q1 3 5.5 6.5t4.5 8.5q7 0 9.5 4.5t7.5 4.5l1 6q10 2 12 10q3 0 9.5 1t11.5 1h22h46h91h91
h45q7 0 19 4q9 3 21 2l4 7h5h6t3.5 2t1.5 6q1 0 3 0.5t4 0.5h2l3 7h5q1 4 5.5 7.5t4.5 7.5q5 1 7.5 5.5t5.5 5.5v4q0 3 3.5 9t4.5 10l2 -3l1 2v577q-2 1 -3 0v1q-1 1 -2 5t-5 7l-4 11h-3l-2 9h-6l-1 7q-3 1 -6 5t-8 4l-1 5h-2v4q-5 0 -9.5 3.5t-10.5 3.5h-7q0 3 -0.5 4
t-2.5 1.5t-3 1.5l-23 1q-5 3 -13 3h-790l-30 -4h-6l-12 -7l-11 -2q-1 -5 -10 -8l-3 -6h-5l-3 -8h-2q-1 0 -5 -1q-1 -5 -4 -7t-3 -4q-1 -1 -2.5 -4t-2.5 -5.5l-1 -2.5h-3v-9q0 -5 -4 -6l-3 -4l-1 -55l-1 -465l3 -56l3 -2l2 -5l1 1v-6q0 -5 3.5 -8t3.5 -5l1 -3l11 -11l4 -7h8
v-3l3 -6q9 0 10 -7l12 -1l3 -5l25 -3q7 -5 9 -5h252q1 0 6 0.5t7.5 0t2.5 -3.5v-8q0 -3 -1 -6.5t-1 -4.5l-6 -2v-18h-4l-4 -2v-8q0 -8 -4 -12t-4 -6v-11q-10 -2 -10 -14v-4q-7 -2 -7 -20q-8 -2 -8 -19v-30q0 -1 1 -5l1 1l3 -4l7 -3q1 -6 3.5 -7t11.5 -1l5 -2v-3h10q5 0 7 4
l15 2l5 7q5 0 11 5.5t7 9.5l8 4v4q4 0 7 5t8 6q3 1 3.5 3t3.5 3q4 2 4 2.5t2 5.5q7 0 8 8h3q1 0 4 1l1 6q5 1 7 2.5t2 2.5t-0.5 2t1 2t5.5 1l-3 -4v0v0zM247 401zM174 401q0 30 21.5 51.5t51.5 21.5t51 -21.5t21 -51.5t-21 -51.5t-51 -21.5t-51.5 21.5t-21.5 51.5zM737 401z
M664 401q0 30 21.5 51.5t51.5 21.5t51.5 -21.5t21.5 -51.5t-21.5 -51.5t-51.5 -21.5t-51.5 21.5t-21.5 51.5zM488 401zM415 401q0 30 21.5 51.5t51.5 21.5t51 -21.5t21 -51.5t-21 -51.5t-51 -21.5t-51.5 21.5t-21.5 51.5z" />
    <glyph glyph-name="piao1" unicode="&#xe60c;" 
d="M512 812q-139 0 -257 -68.5t-186.5 -186.5t-68.5 -257t68.5 -257t186.5 -186.5t257 -68.5t257 68.5t186.5 186.5t68.5 257t-68.5 257t-186.5 186.5t-257 68.5zM512 -171q-96 0 -183 37.5t-150 100.5t-100.5 150t-37.5 183t37.5 183t100.5 150t150 100.5t183 37.5
t183 -37.5t150 -100.5t100.5 -150t37.5 -183t-37.5 -183t-100.5 -150t-150 -100.5t-183 -37.5zM786 212v-24h-250v-88q0 -58 -67 -58h-51v26h39q43 -2 41 36v84h-262v24h550zM277 344v125h144v60h-183v24h550v-24h-187v-60h144v-69q5 -58 -65 -56h-403v0zM368 157h38
q-36 -86 -165 -108v22q105 26 127 86zM728 292v-24h-432v24h432zM315 445v-77h106v77h-106zM457 529v-60h108v60h-108zM457 445v-77h108v77h-108zM709 400v45h-108v-77h77q31 0 31 32zM656 157q22 -60 127 -86v-22q-129 22 -165 108h38v0z" />
    <glyph glyph-name="hot" unicode="&#xe659;" 
d="M578 301q9 13 12 30q4 17 4 36t-4 36q-3 17 -11 29t-21 19t-32.5 7t-33 -7.5t-21.5 -19.5t-12 -29q-3 -16 -3 -35q0 -21 3 -38t11 -29t21 -18.5t33 -6.5t33 7t21 19zM899 621h-774q-51 0 -87.5 -36.5t-36.5 -88.5l-1 -249q0 -52 36.5 -88.5t88.5 -36.5h294l94 -75l81 75
l305 -1q52 0 88.5 36.5t36.5 88.5v250q0 52 -36.5 88.5t-88.5 36.5zM372 251q0 -2 -1.5 -4.5t-4.5 -3.5q-2 -1 -5.5 -1.5t-8.5 -0.5t-8.5 0.5t-5.5 1.5q-3 1 -4.5 3.5t-1.5 4.5v102h-101v-102q0 -2 -1 -4.5t-5 -3.5q-2 -1 -5.5 -1.5t-8 -0.5t-8 0.5t-5.5 1.5q-4 1 -5 3.5
t-1 4.5v230q0 2 1 4.5t5 3.5q2 1 5.5 1.5t8 0.5t8 -0.5t5.5 -1.5q4 -1 5 -3.5t1 -4.5v-92h101v92q0 2 1.5 4.5t4.5 3.5q2 1 5.5 1.5t8.5 0.5t8.5 -0.5t5.5 -1.5q3 -1 4.5 -3.5t1.5 -4.5v-230zM629 315q-7 -24 -21.5 -41t-35.5 -26t-50 -9q-27 0 -48 8q-20 9 -33.5 25
t-20.5 39q-6 24 -6 54q0 29 7 52q7 24 21 41t35.5 26t49.5 9q27 0 47.5 -8t34 -24t20.5 -40q7 -23 7 -52.5t-7 -53.5zM835 465q0 -3 -1 -5q-2 -3 -4 -4.5t-5 -1.5h-63v-203q0 -2 -1.5 -4.5t-4.5 -3.5q-2 -1 -5.5 -1.5t-8.5 -0.5t-8.5 0.5t-5.5 1.5q-3 1 -4.5 3.5t-1.5 4.5
v203h-63q-3 0 -5 1.5t-3 4.5q-1 2 -1.5 5t-0.5 7t0.5 7t1.5 5q1 3 3 4.5t5 1.5h166q3 0 5 -1.5t4 -4.5q1 -2 1 -5q1 -3 1 -7t-1 -7z" />
    <glyph glyph-name="unie62d" unicode="&#xe6b8;" 
d="M1021 711l-93 -371q0 -7 -2 -12q-6 -12 -18 -18q-5 -2 -12 -2h-608l26 -128h550q13 0 22.5 -9.5t9.5 -22.5t-9.5 -22.5t-22.5 -9.5h-576q-13 0 -22.5 9.5t-9.5 22.5l-122 608h-102q-13 0 -22.5 9.5t-9.5 22.5t9.5 22.5t22.5 9.5h128q13 0 22.5 -9.5t9.5 -22.5l6 -32h794
q13 0 22.5 -9.5t9.5 -22.5q0 -7 -3 -13zM275 372h109v320h-173zM576 692h-160v-320h160v320zM768 692h-160v-320h160v320zM800 692v-320h72l81 320h-153zM352 52q40 0 68 -28t28 -68t-28 -68t-68 -28t-68 28t-28 68t28 68t68 28zM352 -76q13 0 22.5 9.5t9.5 22.5t-9.5 22.5
t-22.5 9.5t-22.5 -9.5t-9.5 -22.5t9.5 -22.5t22.5 -9.5zM800 52q40 0 68 -28t28 -68t-28 -68t-68 -28t-68 28t-28 68t28 68t68 28zM800 -76q13 0 22.5 9.5t9.5 22.5t-9.5 22.5t-22.5 9.5t-22.5 -9.5t-9.5 -22.5t9.5 -22.5t22.5 -9.5z" />
    <glyph glyph-name="aixin" unicode="&#xe61f;" 
d="M750 708q-80 0 -145 -44.5t-93 -116.5q-29 72 -94 116.5t-145 44.5q-106 0 -181.5 -75t-75.5 -181q0 -116 94 -202l402 -391l244 235q63 57 110 106l47 44q43 40 68.5 94.5t25.5 113.5q0 106 -75.5 181t-181.5 75z" />
    <glyph glyph-name="dengluhou" unicode="&#xe6ea;" 
d="M624 242q76 33 122.5 102.5t46.5 154.5q0 116 -81.5 198t-197.5 82t-198 -82t-82 -198q0 -85 46.5 -154.5t122.5 -102.5q-140 -37 -230 -152.5t-90 -263.5h862q0 148 -90.5 263.5t-230.5 152.5z" />
    <glyph glyph-name="jiahao" unicode="&#xe6a5;" 
d="M1013 388h-413v412h-175v-412h-413v-175h413v-413h175v413h413v175z" />
    <glyph glyph-name="jiahao1" unicode="&#xe62e;" 
d="M453 832h120v-387h387v-120h-387v-389h-120v389h-389v120h389v387z" />
    <glyph glyph-name="jian1" unicode="&#xe66c;" 
d="M476 351h47v-96h-47v96zM809 830h-594q-62 0 -106 -44t-44 -106v-592q0 -62 44 -106t106 -44h594q62 0 106 44t44 106v592q0 62 -44 106t-106 44zM688 670q22 -22 59 -67q-19 -15 -37 -29q-27 39 -56 66q19 17 34 30zM273 601q42 -67 72 -116q-23 -13 -47 -32
q-12 32 -69 118q24 17 44 30zM214 206q30 37 53 84q23 46 43 101q22 -17 45 -30q-27 -49 -55 -103q-27 -55 -39 -84q-25 22 -47 32zM431 435v40h131v-40h-131zM434 388h131q-3 -29 -3 -88q0 -57 3 -79h-131q2 35 2 79q0 46 -2 88zM772 124q-20 -27 -49.5 -9.5t-78.5 101.5
q-50 -64 -114 -114q-17 25 -37 40q64 29 128 123q-37 96 -42 262h-175v-143q5 -173 -64 -284q-20 17 -49 27q42 52 56.5 129.5t14.5 171.5q0 93 -2 138h217q-3 46 -5 101q27 -2 54 -2q-5 -20 -5 -99h52q43 0 94 3v-45q-48 3 -91 3h-52q-3 -116 27 -215q40 74 59 163
q25 -15 52 -22q-12 -26 -39 -89q-27 -62 -52 -106q39 -77 60 -89.5t36 61.5q12 -12 42 -24q-17 -55 -37 -82z" />
    <glyph glyph-name="mian1" unicode="&#xe66e;" 
d="M577 569h-168q-42 -45 -69 -69h195q15 21 42 69zM676 460h-134q-7 -45 -17 -101h151v101zM362 359h114q10 30 17 101h-131v-101zM809 830h-594q-62 0 -106 -44t-44 -106v-592q0 -62 44 -106t106 -44h594q62 0 106 44t44 106v592q0 62 -44 106t-106 44zM767 123
q-15 -14 -49 -16h-126q-64 0 -64 62v153h-13q-49 -136 -232 -222q-12 22 -39 44q170 57 222 178h-104v-27h-49q2 42 2 182q-21 -16 -47 -34q-15 24 -37 42q74 39 127 97t71 98q22 -15 54 -25q-15 -15 -42 -49h215q-13 -23 -69 -106h138q-2 -30 -2 -87q0 -54 2 -91h-151v-136
q0 -37 40 -37h86q25 0 32.5 13.5t9.5 58.5q25 -20 57 -28q-17 -56 -32 -70z" />
    <glyph glyph-name="xing" unicode="&#xe688;" 
d="M512 810l138 -280l310 -45l-224 -218l53 -308l-277 145l-277 -145l53 308l-224 218l310 45zM789 -63q-6 0 -10 3l-267 140l-267 -140q-11 -7 -22 1t-9 21l51 297l-216 211q-9 9 -5 21.5t17 14.5l298 43l134 271q5 11 19 11t19 -11l134 -271l298 -43q13 -2 17 -14.5
t-5 -21.5l-216 -211l51 -297q2 -13 -9 -21q-5 -4 -12 -4zM512 125q5 0 10 -2l238 -125l-45 265q-2 11 6 19l193 188l-267 39q-11 2 -16 12l-119 241l-119 -241q-5 -10 -16 -12l-267 -39l193 -188q8 -8 6 -19l-45 -265l238 125q5 2 10 2z" />
    <glyph glyph-name="552cd5294518e" unicode="&#xe641;" 
d="M875 186h-570l41 118v0q7 9 4 20v0.5v0.5l-134 417v0q-4 17 -22 19h-1.5h-0.5v0l-86 16v0q-10 1 -18 -5t-9.5 -16t4 -18t16.5 -10l73 -13l128 -393l-59 -146v0l-0.5 -1l-0.5 -1q-1 -3 -2 -5t-1 -5l-0.5 -1t-0.5 -1.5t0.5 -1l0.5 -0.5q0 -2 1 -5t1 -4q1 -2 3 -4l3 -3
q0 -1 0.5 -1.5l0.5 -0.5q1 0 2 -0.5l1 -0.5q3 -2 4 -2q3 -1 6 -1l1 -0.5l1 -0.5v0h614v0q10 0 17 7.5t7 17.5t-7 17t-17 7zM935 620l1 5q0 1 -0.5 2t-0.5 1.5v1.5q-1 4 -3 7q-1 1 -1 2q-2 3 -5 5q-1 0 -2 1q-3 2 -6 3q-1 0 -1.5 0.5l-0.5 0.5h-1h-1.5h-1h-1.5h-561v0
q-11 0 -18 -7t-7 -17t7 -17.5t18 -7.5v0h509h17l-92 -265h-344v0q-10 0 -17 -7t-7 -17t7 -17.5t17 -7.5v0h353v0q1 0 2 0.5l1 0.5v0q10 -2 18.5 3.5t11.5 14.5v0l107 310l1 2l1 3v0v0v0zM394.5 79q-18.5 0 -31.5 -13t-13 -31.5t13 -31.5t31.5 -13t31.5 13t13 31.5t-13 31.5
t-31.5 13zM733.5 79q-18.5 0 -31.5 -13t-13 -31.5t13 -31.5t31.5 -13t31.5 13t13 31.5t-13 31.5t-31.5 13z" />
    <glyph glyph-name="arrows-copy" unicode="&#xe620;" 
d="M755 407q10 -10 10 -24t-10 -24l-441 -442q-10 -10 -24.5 -10t-24.5 10v0q-10 11 -10 25t10 24l441 442q10 10 24.5 10t24.5 -11v0zM266 849q10 10 24.5 10t24.5 -10l441 -441q10 -10 10 -24.5t-10 -24.5v0q-10 -10 -24.5 -10t-24.5 10l-441 441q-10 10 -10 24.5t10 24.5
v0z" />
    <glyph glyph-name="weibiaoti201" unicode="&#xe6b2;" 
d="M450 415q-15 -162 -70 -218q-4 -4 -10 -6q14 -16 29 -29h0.5t0.5 1q84 39 149 105q-60 67 -99 147zM662 445h-175q36 -78 93 -142q54 66 82 142zM512 845q-94 0 -179 -36.5t-147 -98.5t-98.5 -147t-36.5 -179t36.5 -179t98.5 -147t147 -98.5t179 -36.5t179 36.5t147 98.5
t98.5 147t36.5 179t-36.5 179t-98.5 147t-147 98.5t-179 36.5zM245 656.5q6 7.5 15.5 8.5t16.5 -4l114 -91q8 -6 9 -15.5t-5 -16.5q-7 -9 -18 -9q-8 0 -14 5l-114 91q-8 5 -9 14.5t5 17zM804 77h-329q-73 0 -148 93q-24 -49 -77 -91q-6 -5 -14 -5q-11 0 -18 8q-6 8 -5 17.5
t8 15.5q33 26 51.5 54t21.5 39.5t3 15.5v145h-92q-10 0 -16.5 6.5t-6.5 16t6.5 16.5t16.5 7h115q10 0 16.5 -7t6.5 -16v-168v-1q2 4 4 6q23 24 38 78t19 112t5.5 116.5t-2.5 89.5q-1 13 10 20.5t23 1.5q22 -7 105.5 -4.5t180.5 10.5q9 0 16.5 -6t8.5 -15.5t-5.5 -17
t-15.5 -7.5q-195 -17 -276 -9q2 -53 1 -104q4 0 8 -2h231q11 0 18 -9t4 -20q-3 -13 -9.5 -32.5t-32.5 -69.5t-62 -92q68 -65 150 -100q9 -4 12.5 -13t-0.5 -17q-6 -14 -21 -14q-4 0 -9 1q-90 39 -163 108q-61 -62 -139 -103q18 -8 33 -8h329q9 0 16 -7t7 -16.5t-7 -16
t-16 -6.5z" />
    <glyph glyph-name="fenlei" unicode="&#xe633;" 
d="M196 607q0 -8 -6.5 -13.5t-16.5 -5.5h-86q-9 0 -16 5.5t-7 13.5v73q0 8 7 13.5t16 5.5h86q10 0 16.5 -5.5t6.5 -13.5v-73v0zM959 607q0 -8 -6.5 -13.5t-16.5 -5.5h-625q-9 0 -16 5.5t-7 13.5v73q0 8 7 13.5t16 5.5h625q10 0 16.5 -5.5t6.5 -13.5v-73v0zM196 348
q0 -8 -6.5 -14t-16.5 -6h-86q-9 0 -16 6t-7 14v72q0 8 7 14t16 6h86q10 0 16.5 -6t6.5 -14v-72v0zM959 348q0 -8 -6.5 -14t-16.5 -6h-625q-9 0 -16 6t-7 14v72q0 8 7 14t16 6h625q10 0 16.5 -6t6.5 -14v-72v0zM196 88q0 -8 -6.5 -13.5t-16.5 -5.5h-86q-9 0 -16 5.5t-7 13.5
v73q0 8 7 13.5t16 5.5h86q10 0 16.5 -5.5t6.5 -13.5v-73v0zM959 88q0 -8 -6.5 -13.5t-16.5 -5.5h-625q-9 0 -16 5.5t-7 13.5v73q0 8 7 13.5t16 5.5h625q10 0 16.5 -5.5t6.5 -13.5v-73v0zM959 88z" />
    <glyph glyph-name="renren1" unicode="&#xe639;" horiz-adv-x="1801" 
d="M901 725q-59 68 -139 112.5t-171 58.5v-368q0 -6 1 -17.5t7.5 -45t16.5 -66.5t29.5 -77t44.5 -82q97 -143 209 -192q-124 143 -124 336q-2 96 31.5 183.5t94.5 157.5zM602 66q-34 41 -58 87.5t-31 72.5l-7 26q-2 -11 -6.5 -29t-24.5 -65t-47 -83q-43 -55 -156 -140
q110 -59 242 -59q128 0 238 59q-38 28 -84 67.5t-66 63.5zM422 520v374q-119 -22 -215 -93.5t-151.5 -180t-55.5 -232.5q0 -95 33 -181t94 -155q44 27 96.5 71t90.5 100q40 57 66.5 133.5t34 116t7.5 47.5zM1363 892v-368q1 -6 2 -17.5t7.5 -45t16.5 -66.5t29.5 -77
t44.5 -82q98 -146 209 -191q62 68 95.5 155.5t33.5 183.5q-1 127 -58.5 237.5t-157 181.5t-222.5 89zM1375 62q-34 42 -58 88.5t-31 71.5l-7 26q-2 -11 -6.5 -29t-24.5 -65t-48 -83q-42 -55 -155 -140q110 -59 242 -59q128 0 237 59q-117 92 -149 131zM1195 516v374
q-86 -15 -161.5 -58t-132.5 -107q125 -143 125 -335q0 -97 -33.5 -184t-95.5 -156v0v0q45 27 97.5 71t90.5 100q40 57 67.5 133t35 115t7.5 47v0z" />
    <glyph glyph-name="muyingyongpin" unicode="&#xe698;" 
d="M576 777v42q0 26 -18.5 44t-43.5 18h-5q-26 0 -44 -18t-18 -44v-46q-90 -22 -137 -94h199h5h200q-2 3 -6 8.5t-18 20.5t-29 27t-38 24.5t-47 17.5v0zM576 777zM787 616q0 -14 -10 -24t-24 -10h-482q-14 0 -24 10t-10 24v0q0 14 10 24t24 10h482q14 0 24 -10t10 -24v0v0z
M787 616zM696 544h-368h-97v-145v0v-429q0 -41 28.5 -69.5t68.5 -28.5h368q40 0 68.5 28.5t28.5 69.5v429v0v145h-97zM327 -42q0 -8 -5 -13t-12 -5t-12 5t-5 13v501q0 7 5 12t12 5t12 -5t5 -12v-501z" />
    <glyph glyph-name="meirong" unicode="&#xe603;" 
d="M887 151l-24 59l-24 -59l-60 -24l60 -25l24 -59l24 59l59 25zM307 214q19 15 41 20t40.5 2.5t33.5 -7.5t24 -10l8 -5q-22 31 -45.5 42t-41 5.5t-31.5 -16t-21.5 -20.5t-7.5 -11v0v0zM542 214q19 15 41.5 20t40.5 2.5t33.5 -7.5t23.5 -10l9 -5q-22 31 -45.5 42t-41 5.5
t-31.5 -16t-22 -20.5t-8 -11v0v0zM220 541l38 94l95 38l-95 38l-38 94l-38 -94l-95 -38l95 -38zM728 -57h-190l-6 46q70 21 113.5 70t64.5 130q17 63 17 122v9q0 16 -3 27t-22 41.5t-60 82.5q-14 -35 -52.5 -63.5t-81 -45t-95.5 -29t-82.5 -17t-55.5 -6.5q-2 0 -3 -1v-1
q-14 -104 30.5 -187t115.5 -116q7 -3 20 -8t16 -6l-6 -47h-187q-72 0 -115 42.5t-43 112.5v336q0 86 30 158l22 52l45 -111q6 -14 19 -14v0q13 0 19 14q4 8 30 76q2 6 6.5 10.5t24.5 13t60 20.5q13 5 13 19q0 13 -14 19q-1 0 -14.5 5.5t-32.5 13t-30 11.5l-42 18l39 24
q77 49 175 61q80 8 153.5 -14.5t126.5 -66t89.5 -101t49.5 -120.5q9 -51 9 -88v-207h-23q-9 0 -13 -11q0 -1 -3 -9t-8 -18.5t-8 -16.5l-1 -2q-8 -14 -56 -27q-12 -5 -12 -18t12 -18q33 -9 44.5 -16t14.5 -17l1 -4q6 -21 12 -28l2 -2l1 -3q0 -1 1 -2.5t2.5 -3.5t3.5 -5l9 -13
l-10 -14q-42 -57 -122 -57v0v0zM640 -9h88q46 0 73 25q-6 7 -16 37q-5 3 -30 10l-3 1q-19 8 -31 24q-31 -61 -81 -97v0v0zM157 516q-8 -40 -8 -80v-336q0 -51 29 -79t82 -28h88q-72 54 -103.5 144t-19.5 177q6 37 44 42q147 14 233.5 54.5t97.5 84.5q2 13 3 18q3 18 3 19
l8 45l32 -33q9 -9 13 -20q54 -67 79 -106t30 -56.5t5 -42.5v-8q0 -57 -16 -122q15 4 28 10q3 6 8 19t7 15q9 25 33 37v165q0 27 -8 80q-11 54 -43 104.5t-79 88.5t-111.5 57.5t-133.5 13.5q-59 -7 -112 -31l30 -11q20 -8 31.5 -25t11.5 -38q0 -20 -11.5 -37t-31.5 -26l-2 -1
q-51 -18 -65 -24q-28 -67 -28 -70q-8 -20 -25 -31.5t-38 -11.5v0q-43 2 -61 43v0v0z" />
    <glyph glyph-name="jian" unicode="&#xe604;" 
d="M509 273h26q16 0 16 13v78q-3 15 -13 15h-31q-13 -2 -13 -13v-77q0 -16 15 -16zM512 878q-100 0 -191.5 -39t-157.5 -105t-105 -157.5t-39 -191.5t39 -191.5t105 -157.5t157.5 -105t191.5 -39t191.5 39t157.5 105t105 157.5t39 191.5t-39 191.5t-105 157.5t-157.5 105
t-191.5 39zM228 653q21 10 36 -8q44 -70 73 -152q5 -23 -13 -36q-24 -8 -31 15q-39 96 -70 147q-13 18 5 34zM210 88q-18 15 -5 33q57 91 88 245q5 26 31 21q20 -8 18 -36q-39 -173 -96 -256q-15 -18 -36 -7zM432 490q0 23 26 26h129q18 -3 20 -26q-2 -23 -20 -23h-129
q-26 0 -26 23zM448 281v103q0 39 41 42h64q42 -3 44 -44v-106q-1 -24 -12.5 -36.5t-33.5 -12.5h-54q-52 -3 -49 54zM757 70q-49 7 -90 142q-57 -65 -155 -122q-23 -10 -39 13q-13 23 11 34q103 59 165 139q-29 142 -31 294h-183q-18 0 -18 -18v-186q-6 -157 -62 -258
q-11 -15 -34 -7q-23 10 -13 28q52 103 57 237v202q3 49 57 54h193v59q26 39 52 0v-59h54q-5 5 -13 18q-5 8 -10 18q-11 20 10 31q18 8 34 -10q46 -73 69 -124q8 -24 -10 -34q-21 -10 -34 10q-10 13 -20 39h-78q0 -70 6 -126q5 -54 15 -116q26 28 65 116q10 18 33 5
q18 -13 10 -34q-20 -57 -90 -157q21 -90 44 -108q10 0 18 77q3 13 5 28q3 18 26 18q21 -5 23 -25q-13 -168 -67 -178z" />
    <glyph glyph-name="icon601" unicode="&#xe607;" 
d="M965 755h-906q-17 0 -28.5 -12t-11.5 -28v-87h986v87q0 16 -11.5 28t-28.5 12v0zM965 755zM1005 510v-457q0 -16 -11.5 -28t-28.5 -12h-906q-17 0 -28.5 12t-11.5 28v457h986v0zM390 387h-247v-76h247v76v0v0zM515 215h-372v-76h372v76v0v0zM514 387h-75v-76h75v76v0z
M514 387z" />
    <glyph glyph-name="wangshangshenqing" unicode="&#xe61e;" 
d="M903 803h-782q-23 0 -39.5 -16.5t-16.5 -39.5v-559q0 -23 16.5 -39t39.5 -16h251v-84l-51 -56q-7 -7 -3 -17.5t15 -10.5h358q11 0 15 10.5t-3 17.5l-51 56v84h251q23 0 39.5 16t16.5 39v559q0 23 -16.5 39.5t-39.5 16.5zM847 244h-670v447h670v-447z" />
    <glyph glyph-name="icon" unicode="&#xe60d;" 
d="M660 416h-487q-71 0 -122 51t-51 122q0 17 12 29.5t29.5 12.5t29.5 -12.5t12 -29.5q0 -37 26.5 -63.5t63.5 -26.5h487q37 0 63.5 26.5t26.5 63.5q0 17 12.5 29.5t29.5 12.5t29 -12.5t12 -29.5q0 -71 -50.5 -122t-122.5 -51zM659 -67h-485q-71 0 -121.5 50.5t-50.5 121.5
v485q0 72 50.5 122.5t121.5 50.5h51q17 0 29.5 -12t12.5 -29.5t-12.5 -29.5t-29.5 -12h-51q-37 0 -63.5 -26.5t-26.5 -63.5v-485q0 -37 26.5 -63t63.5 -26h485q37 0 63.5 26t26.5 63v485q0 37 -26.5 63.5t-63.5 26.5h-65q-17 0 -29 12t-12 29.5t12 29.5t29 12h65
q71 0 122 -50.5t51 -122.5v-485q0 -71 -51 -121.5t-122 -50.5zM803 102q-17 0 -29.5 12t-12.5 29.5t12.5 29.5t29.5 12q57 0 97.5 40.5t40.5 97.5t-40.5 97.5t-97.5 40.5q-17 0 -29.5 12.5t-12.5 29.5t12.5 29t29.5 12q91 0 156 -64.5t65 -156t-65 -156.5t-156 -65zM346 564
q-6 0 -12 2q-10 5 -14 16t1 21.5t9 24.5t3.5 33.5t-9.5 32.5q-13 18 -18 37.5t-3 34t7 29t8 20t5 8.5q7 10 18 12t20.5 -4.5t11.5 -18t-4 -20.5q-4 -5 -7 -12t-3 -23.5t9 -30.5q13 -16 17.5 -37.5t3.5 -38.5t-6 -35t-7.5 -25t-4.5 -11q-8 -15 -25 -15zM484 564q-6 0 -12 2
q-10 5 -14 16t1 21.5t9 24.5t3.5 33.5t-9.5 32.5q-13 18 -17.5 37.5t-3 34t6.5 29t8 20t6 8.5q6 10 17.5 12t20.5 -4.5t11 -18t-4 -20.5q-3 -5 -6.5 -12t-3.5 -23.5t10 -30.5q12 -16 16.5 -37.5t3.5 -38.5t-5.5 -35t-7.5 -25t-5 -11q-7 -15 -25 -15z" />
    <glyph glyph-name="shenduqingji" unicode="&#xe632;" 
d="M829 -127h-634q-19 0 -32 12t-13 29l30 364q7 72 65.5 111t157.5 39q17 0 37 -1l69 131h302l63 -641q0 -19 -13 -31.5t-32 -12.5v0zM202 -76h620l-58 582h-224l-71 -135l-18 3h-1h-2.5t-3 0.5t-4.5 0.5t-6 0.5t-6.5 0.5h-7.5t-8.5 0.5t-8.5 0.5q-162 0 -171 -103
l-30 -350v0zM806 896h-516q-7 0 -12 -5t-5 -12v-36h-80q-7 0 -12.5 -5t-5.5 -13v-50q0 -7 5.5 -12t12.5 -5h80v-36q0 -7 5 -12t12 -5h102l-82 -153q-8 -14 -3.5 -29.5t18.5 -22.5q9 -5 19 -5q23 0 34 20l102 190h69q-1 -3 -1 -7v-65q0 -7 5 -12t12 -5h165q7 0 12.5 5t5.5 12
v65q0 3 -2 7h60q7 0 12 5t5 12v157q0 7 -5 12t-12 5v0zM849 -86h-673l30 250h600z" />
    <glyph glyph-name="gongwen" unicode="&#xe64a;" 
d="M249 335h311q7 0 11 7.5t4 18t-4 18t-11 7.5h-311q-7 0 -11.5 -7.5t-4.5 -18t4.5 -18t11.5 -7.5zM771 270h-513q-10 0 -17.5 -7.5t-7.5 -18t7.5 -18t17.5 -7.5h513q10 0 17.5 7.5t7.5 18t-7.5 18t-17.5 7.5zM771 154h-513q-10 0 -17.5 -7.5t-7.5 -18t7.5 -18t17.5 -7.5
h513q10 0 17.5 7.5t7.5 18t-7.5 18t-17.5 7.5zM311 571l-9 -48q-2 -15 9 -23q12 -9 24 -2l46 22l45 -22q5 -3 11 -3q7 0 14 5q11 8 9 23l-9 48l36 34q10 10 5.5 24t-18.5 16l-50 9l-22 46q-6 13 -20.5 13t-21.5 -13l-22 -46l-50 -9q-14 -2 -18 -16q-5 -14 6 -24zM356 630
l25 52l25 -52l57 -10l-41 -39l11 -57l-52 26l-51 -25l10 56l-42 38zM919 651l-194 197q-8 8 -20 11h-525q-37 -2 -63 -30t-26 -66v-758q0 -40 28 -68t68 -28h650q40 0 68 28t28 68l-1 609q2 22 -13 37zM838 30q0 -11 -7.5 -18t-17.5 -7h-602q-10 0 -17.5 7t-7.5 18v709
q0 10 7.5 17.5t17.5 7.5h409v-214q0 -11 8 -19.5t20 -8.5h188l2 -2v-490v0zM775 588h-99v112v65l174 -176h-75v-1z" />
    <glyph glyph-name="shouji" unicode="&#xe612;" 
d="M219 101h582v703h-582v-703zM274 154h472v598h-472v-598zM559 14q0 -18 -13.5 -30.5t-32 -12.5t-31.5 12.5t-13 30.5t13 30.5t31.5 12.5t32 -12.5t13.5 -30.5v0zM799 -128h-578q-38 0 -65.5 26.5t-27.5 63.5v841q0 37 27.5 63t65.5 26h578q39 0 66 -26t27 -63v-841
q0 -37 -27 -63.5t-66 -26.5v0zM221 840q-16 0 -27 -11t-11 -26v-841q0 -16 11 -26.5t27 -10.5h578q16 0 27.5 10.5t11.5 26.5v841q0 15 -11.5 26t-27.5 11h-578v0v0z" />
    <glyph glyph-name="mian" unicode="&#xe6c7;" horiz-adv-x="1030" 
d="M323 435q-12 0 -14 -1t-2 -9v-77q0 -11 2 -13t14 -2h107q31 56 41 102h-148zM676 435h-164q-5 -23 -13.5 -48.5t-15.5 -39.5l-7 -14h200q28 0 34.5 2t6.5 13v77q0 7 -6.5 8.5t-34.5 1.5zM517 896q-104 0 -198.5 -40.5t-163 -109.5t-109.5 -163.5t-41 -198.5t41 -198.5
t109.5 -163.5t163 -109.5t198.5 -40.5t198.5 40.5t163.5 109.5t109.5 163.5t40.5 198.5t-40.5 198.5t-109.5 163.5t-163.5 109.5t-198.5 40.5zM768 77h-164q-37 0 -64.5 27.5t-27.5 74.5v103h-51q-32 -64 -77.5 -100t-137.5 -85l-10 -5l-26 36l10 10q63 28 106 63.5t78 80.5
h-81q-31 0 -49 17.5t-18 48.5v77q0 27 18 44t49 17h302l25 52h-379l46 133l41 -21l-20 -61h379l-46 -103h5q36 0 64 -14.5t28 -46.5v-77q0 -35 -27.5 -50.5t-64.5 -15.5h-113v-103q0 -16 13 -33.5t28 -17.5h164v-51z" />
    <glyph glyph-name="iconfangxiangxia" unicode="&#xe60a;" 
d="M252 414l260 -260l260 260q12 12 29 12t29 -12t12 -29t-12 -28l-289 -290q-12 -12 -29 -12t-29 12l-289 290q-12 11 -12 28t12 29t29 12t29 -12z" />
    <glyph glyph-name="xiangxia" unicode="&#xe63b;" 
d="M258 318l243 -293q10 -11 19 0l244 293q3 4 1.5 7.5t-7.5 3.5h-143v404q0 6 -4 10.5t-10 4.5h-181q-6 0 -10 -4.5t-4 -10.5v-404h-143q-6 0 -7.5 -3.5t2.5 -7.5v0z" />
    <glyph glyph-name="renren" unicode="&#xe70a;" 
d="M922 389q0 -166 -108 -297q-123 62 -199.5 184.5t-76.5 276.5v292q102 -15 194 -82q82 -60 138 -164q52 -88 52 -210zM681 -10q-105 -57 -220.5 -57t-219.5 57q83 53 143 128q62 77 77 158q26 -96 82 -158q50 -72 138 -128zM384 845v-292q0 -154 -77 -276.5t-199 -184.5
q-108 131 -108 297q0 115 51 210q55 101 138 164q93 67 195 82v0z" />
    <glyph glyph-name="all" unicode="&#xe6d3;" horiz-adv-x="1065" 
d="M638 427h310q21 0 35.5 14.5t14.5 36.5v302q0 22 -14.5 36t-35.5 14h-310q-22 0 -36 -14t-14 -36v-302q-3 -19 12.5 -35t37.5 -16zM422 834h-310q-21 0 -35.5 -14.5t-14.5 -35.5v-303q0 -21 14.5 -35.5t35.5 -14.5h310q22 0 36 14.5t14 35.5v303q3 21 -12.5 35.5
t-37.5 14.5zM422 341h-310q-21 0 -35.5 -14.5t-14.5 -36.5v-306q0 -21 14.5 -35.5t35.5 -14.5h310q22 0 36 14.5t14 35.5v303q3 21 -12.5 37.5t-37.5 16.5zM948 341h-310q-22 0 -36 -14.5t-14 -36.5v-302q0 -22 14 -36t36 -14h310q21 0 35.5 14t14.5 36v302q0 20 -14.5 35.5
t-35.5 15.5zM940 -8h-298v291h298v-291z" />
    <glyph glyph-name="fapiao" unicode="&#xe666;" 
d="M600 528h99v-63h-99v63zM466 615h92v-49h-92v49zM326 528h98v-63h-98v63zM466 528h92v-63h-92v63zM829 831h-634q-54 0 -92 -38t-38 -92v-634q0 -54 38 -92t92 -38h634q54 0 92 38t38 92v634q0 54 -38 92t-92 38zM248 154q89 37 150 86l29 -27q-62 -53 -153 -93zM540 165
q0 -51 -55 -51h-56l-8 40q34 -3 50 -3q26 0 26 24v87h-249v39h528v-39h-236v-97zM309 346v37h409v-37h-409zM750 119q-49 43 -141 94l30 28q85 -46 142 -91zM786 615h-186v-49h142v-138h-459v138h141v49h-186v39h548v-39z" />
    <glyph glyph-name="shangquandingwei" unicode="&#xe6fb;" 
d="M512 519q46 0 78.5 32.5t32.5 78.5t-32.5 78.5t-78.5 32.5t-78.5 -32.5t-32.5 -78.5t32.5 -78.5t78.5 -32.5zM512 690q25 0 42.5 -17.5t17.5 -42.5t-17.5 -42.5t-42.5 -17.5t-42.5 17.5t-17.5 42.5t17.5 42.5t42.5 17.5zM269 494l209 -314q12 -18 33 -18q22 0 34 18
l210 314q17 28 24 51l2 5q13 39 13 80q0 110 -82.5 188t-199.5 78t-199.5 -78t-82.5 -188q0 -41 13 -80q9 -29 26 -56zM512 845q95 0 163 -63t68 -152q0 -32 -11 -64q-7 -23 -21 -44l-200 -300l-198 300q-14 21 -22 45q-10 30 -10 63q0 89 68 152t163 63zM314 348
q-42 -54 -42 -120q0 -87 70.5 -149t169.5 -62t169.5 62t70.5 149q0 66 -42 120l-41 -32q31 -40 31 -88q0 -66 -55 -113t-133 -47t-133 47t-55 113q0 48 31 88zM798 481l-33 -39q103 -89 103 -214q0 -83 -48 -153t-129.5 -111t-178 -41t-178.5 41t-130 111t-48 153
q0 64 29.5 121.5t83.5 100.5l-32 41q-63 -51 -97.5 -119.5t-34.5 -143.5q0 -96 54.5 -178.5t148.5 -130t204 -47.5t204 48t148.5 130t54.5 178q0 72 -31 137.5t-90 115.5z" />
    <glyph glyph-name="control-arr" unicode="&#xe613;" 
d="M689 405l-307 -276v510zM689 405z" />
    <glyph glyph-name="quan" unicode="&#xe64c;" 
d="M512 896q-104 0 -199 -40.5t-163.5 -109t-109 -163.5t-40.5 -199t40.5 -199t109 -163.5t163.5 -109t199 -40.5t199 40.5t163.5 109t109 163.5t40.5 199t-40.5 199t-109 163.5t-163.5 109t-199 40.5zM768 348q20 -12 13 -32q-9 -16 -31 -7q-95 48 -145 100h-163
q-43 -45 -90 -70h314q57 4 48 -50q-5 -100 -16 -129q-16 -47 -79 -50q-73 0 -145 43q-20 14 -11 30q13 18 34 6q135 -63 160 -9q7 21 14 91q2 27 -25 27h-145q-47 -147 -215 -179q-25 -4 -31 16q-3 21 20 27q145 32 176 136h-99q-27 4 -18 29q-23 -10 -57 -27q-22 -9 -34 5
q-9 20 9 31q86 34 129 73h-120q-20 2 -20 22.5t20 20.5h159q9 11 25 45q4 4 4 7h-156q-18 0 -18 20t18 20h72q-18 46 -34 71q-11 18 10 31q18 9 31 -9q18 -29 34 -72q5 -12 0 -21h59q16 68 18 95q4 21 27 18q20 -4 18 -27q-11 -60 -18 -86h75q2 5 11 25q23 48 27 61
q9 23 30 16q18 -9 11 -32q-9 -24 -30 -70h107q18 0 18 -20t-18 -20h-244q-12 -28 -25 -52h291q18 0 21 -21q0 -20 -18 -22h-102q34 -32 104 -61z" />
    <glyph glyph-name="ipad" unicode="&#xe619;" 
d="M919 23h-814q-25 0 -42.5 17.5t-17.5 42.5v602q0 25 17.5 42.5t42.5 17.5h814q25 0 42.5 -17.5t17.5 -42.5v-602q0 -25 -17.5 -42.5t-42.5 -17.5zM888 685h-752v-602h752v602zM949 414h-30v-60h30v60z" />
    <glyph glyph-name="tengxunweibo" unicode="&#xe61a;" horiz-adv-x="1037" 
d="M518 896q-105 0 -201 -40.5t-165.5 -109t-110.5 -163.5t-41 -199t41 -199t110.5 -163.5t165.5 -109t201.5 -40.5t201.5 40.5t165.5 109t110.5 163.5t41 199t-41 199t-110.5 163.5t-165.5 109t-202 40.5zM449 385l-1 -2l-1 -2l-1 -2l-1 -3v-1l-1 -1l-1 -2h-1l-1 -2l-1 -2
l-1 -2l-1 -2l-1 -3l-2 -2l-1 -2h-2l-1 -2l-1 -2l-1 -2l-1 -3l-1 -2l-1 -2l-1 -2l-1 -2l-1 -2l-2 -3h-1l-1 -2l-1 -2l-1 -2l-1 -2l-1 -2l-1 -2l-1 -3l-1 -2l-1 -2l-1 -2q0 -1 -0.5 -1.5l-0.5 -0.5l-2 -2l-1 -3l-1 -2l-1 -2l-1 -2l-1 -2l-1 -2l-1 -2l-1 -3v-6l-1 -2l-1 -2
l-1 -3l-1 -2l-2 -2v-4l-1 -2l-1 -2l-1 -3l-1 -2l-1 -2v-4l-1 -2l-1 -3l-1 -3l-1 -3l-1 -3l-1 -4l-2 -3l-1 -3l-1 -3l1 -1l-1 -4l-1 -3v-5l-1 -3l-1 -4l-1 -3l-1 -3l-1 -3l-1 -4q0 -2 -1 -3l-1 -3q0 -2 -1 -3v-3l-2 -4l-1 -3l-1 -3v-7q0 -2 -1 -3v-157q0 -2 -1 -3q0 -3 -1 -3
l-0.5 -0.5t-0.5 -1t-0.5 -1t-0.5 -1.5l-1 -1l-1 -1l-1 -1q-1 0 -2 -1q-2 0 -3 -1h-13q-1 0 -2 1l-2 1l-2 2q-5 5 -5 13v2v11v5v6v5v25v56v34v23l1 3l1 3v4l1 3q0 2 1 3l1 3l1 4l1 3l1 3l1 3q0 2 1 4l1 3l2 3l1 3l1 3l1 4l1 3l1 3l1 3l-1 1l1 4l1 3l1 3l1 3l1 4l1 3l1 3
q0 2 2 3l1 3l1 2l1 2l1 2l1 2l1 2l1 2l1 3l1 2l1 2l1 2l1 2l2 2l1 3l1 2l1 2l1 2l1 2l1 2l1 2l1 3l1 2l1 2l1 2l1 2l2 2l1 3l1 2l1 2l1 2l1 2q0 1 0.5 1.5l0.5 0.5l1 2l1 3l1 2l1 2l1 2l2 2l1 2l1 3l1 2l1 2l0.5 1l0.5 1l1 2l1 2l1 3l1 2l1 2l1 2l1 2l2 2l1 2l1 3l1 2l1 2
l1 2l1 2l-5 2l1 3l1 2l1 2l1 2l1 2l1 1l1 2l1 3l1 2l1 2l1 2l2 2l1 2l1 2l1 3l1 2l1 2l1 2l1 2l1 2l1 3l1 2l1 1l1 2l2 1l1 2l1 2l1 1l1 2l1 1l1 1l1 1l1 1l1 1l1 1l1 1l1 1l2 1l1 1l1 1l1 1l1 2q-2 3 -4 14l-1 2.5t-1 4.5v7v3v4v3q0 2 2 4q0 2 1 3q0 2 1 3q0 1 0.5 2l0.5 1
l1 2l1 3l0.5 0.5t0.5 1t0.5 1t0.5 1t0.5 1.5t0.5 1.5t0.5 1t0.5 1t0.5 1t0.5 1t0.5 1t0.5 1t0.5 1t0.5 1t1 1t1 1t0.5 1t0.5 1.5q1 1 1 2l1 1l1 1l1 1l1 1l1 2l1 1l1 1l1 1l1 1l2 1l1 1l1 1l1 1l1 1l1 1l1 1l1 1q1 2 2 2t1 1q1 0 1 1q1 0 3 1q1 0 2 1q1 0 2 1q1 0 2 1
q1 0 2 1q1 0 2 1h48q1 0 2 -1q1 0 2 -1q1 0 2 -1q1 0 2 -1q1 0 1.5 -0.5t1 -0.5t1 -0.5t1 -0.5t1 -0.5t1.5 -0.5l2 -1q1 0 1.5 -1l0.5 -1l2 -1h1q1 -1 1 -2q1 0 2 -0.5t1.5 -1l1.5 -1.5t2 -1l3 -3l3 -4q3 -2 4 -4q0 -1 1.5 -2.5l2.5 -2.5q10 -14 12 -30q0 -2 0.5 -4t0.5 -3
v-17q0 -2 -1 -3q0 -3 -1 -4q0 -2 -1 -3q0 -2 -1 -3l-2 -2l-1 -2q0 -1 -0.5 -1.5t-0.5 -1t-0.5 -1t-0.5 -1t-0.5 -1t-0.5 -1t-0.5 -1t-0.5 -1.5t-0.5 -1.5t-0.5 -1t-0.5 -1t-0.5 -1t-0.5 -1t-0.5 -1t-0.5 -1t-0.5 -1t-0.5 -1t-0.5 -1t-0.5 -1t-0.5 -1.5l-1 -1l-2 -1l-1 -1
l-1 -1l-1 -1l-1 -1l-1 -1l-1 -2l-1 -1l-1 -1l-1 -1l-1 -1l-1 -1l-1 -1l-2 -1l-1 -1q-1 -1 -2 -1l-1 -1q-1 0 -1 -1q-1 0 -2 -2q-1 0 -1 -1q-1 0 -2 -1q-1 0 -2 -1q-2 0 -3 -1q-1 0 -2 -1h-47q-1 0 -2 1q-1 0 -3 1q-1 0 -2 1q-1 0 -2 1q-1 0 -2 1q-1 0 -1.5 1t-1 1t-1 0.5
t-1 0.5t-1 0.5l-0.5 0.5l-3 1l-2 1l-2 1l-1 1q-1 0 -1 1q-1 1 -2 1.5t-1.5 1t-1.5 1t-2 0.5h-1l-1 -1l-1 -1l-1 -1l-1 -1l-1 -1l-1 -1l5 -7l-1 -1l-1 -1l-1 -1l-1 -1l-1 -1l-1 -2l-1 -1l-1 -2l-3 -5l-1 -2l-1 -1l-1 -2l-1 -2l-1 -2l-1 -2l-1 -3l-1 -2l-2 1l-1 -2zM524 252
q-33 0 -58 8l-11 7q-11 19 8 26q1 0 2 1t2 1h17q17 -5 40 -5q80 0 136.5 56.5t56.5 136.5t-56.5 136.5t-136.5 56.5t-136.5 -56.5t-56.5 -136.5q0 -50 26 -97l0.5 -0.5t0.5 -1.5q6 -9 3 -20q-10 -24 -32 -5q-37 58 -37 124q0 96 68 164t164 68q95 0 163.5 -68t68.5 -164
q0 -95 -68 -163t-164 -68z" />
    <glyph glyph-name="youxi" unicode="&#xe61c;" 
d="M286 695q26 -4 50 -19t42 -33t36.5 -35.5t43 -28.5t53.5 -11q28 1 54 15t46.5 32.5t41.5 37t47 29.5t54 7q41 -5 80 -49.5t65.5 -109t43 -142t17.5 -146.5t-16.5 -123.5t-54.5 -73.5q-30 -15 -68.5 -5.5t-71.5 39.5q-108 83 -241 94q-99 8 -191 -51l-63 -48
q-14 -13 -25 -20.5t-25 -14t-28.5 -6t-29.5 8.5q-43 21 -64 80.5t-18.5 133.5t21.5 155t49 146t70.5 104.5t81.5 33.5zM659.5 347q-18.5 0 -31 -13t-12.5 -31t12.5 -31t31 -13t31.5 13t13 31t-13 31t-31.5 13zM741 486q-18 0 -31 -13t-13 -31.5t13 -31t31 -12.5t31 12.5
t13 31t-13 31.5t-31 13zM326 425h-85v-67l85 1v-88h72v88h83v66h-83v86l-72 1v-87z" />
  </font>
</defs>
</svg>
